# xmcd
#
# Track frame offsets: 
#        150
#        14531
#        30431
#        43428
#        56474
#        69867
#        84274
#        95338
#        109146
#        123488
#        137019
#        152184
#        164571
#        177533
#
# Disc length: 2586 seconds
#
# Revision: 0
# Processed by: cddbd v1.5.2PL0 Copyright (c) Steve Scherf et al.
# Submitted via: ExactAudioCopy v0.99pb5
#
DISCID=ba0a180e
DTITLE=Frankie Laine - The Nashville Connection
DYEAR=1900
DGENRE=
TTITLE0=Contagious
TTITLE1=She Never Could Dance
TTITLE2=Jake
TTITLE3=Everytime She Cries
TTITLE4=A Heart Lies Still
TTITLE5=Stars In The Bars
TTITLE6=I Go Flyin'
TTITLE7=Shelter From The Storm
TTITLE8=If I Could See Into Your Heart
TTITLE9=I'll Be Thinking Of You
TTITLE10=Pity The One
TTITLE11=Black and White Lives
TTITLE12=Father Time
TTITLE13=Contagious (Live)
EXTD=
EXTT0=
EXTT1=
EXTT2=
EXTT3=
EXTT4=
EXTT5=
EXTT6=
EXTT7=
EXTT8=
EXTT9=
EXTT10=
EXTT11=
EXTT12=
EXTT13=
PLAYORDER=
